<?xml version="1.0" encoding="UTF-8" standalone="no"?>
<svg
   xmlns:dc="http://purl.org/dc/elements/1.1/"
   xmlns:cc="http://creativecommons.org/ns#"
   xmlns:rdf="http://www.w3.org/1999/02/22-rdf-syntax-ns#"
   xmlns:svg="http://www.w3.org/2000/svg"
   xmlns="http://www.w3.org/2000/svg"
   viewBox="0 0 750 60"
   height="60"
   width="750"
   xml:space="preserve"
   id="svg8757"
   version="1.1"><metadata
     id="metadata8763"><rdf:RDF><cc:Work
         rdf:about=""><dc:format>image/svg+xml</dc:format><dc:type
           rdf:resource="http://purl.org/dc/dcmitype/StillImage" /><dc:title></dc:title></cc:Work></rdf:RDF></metadata><defs
     id="defs8761"><clipPath
       id="clipPath8777"
       clipPathUnits="userSpaceOnUse"><path
         id="path8775"
         d="M 0,113.386 H 566.929 V 0 H 0 Z" /></clipPath></defs><g
     transform="matrix(1.3333333,0,0,-1.3333333,0,59.99999)"
     id="g8765"><g
       transform="translate(-6.5856958,-34.192758)"
       id="g8822"><g
         id="g8767"
         transform="matrix(1.0756193,0,0,1.0756193,36.087328,52.784111)"><path
           d="M 0,0 -3.915,11.313 -7.785,0 Z m 2.256,-6.831 h -12.432 l -1.728,-5.217 H -23.091 L -9.814,19.471 H 2.203 L 15.475,-12.048 H 4.024 Z"
           style="fill:#ffffff;fill-opacity:1;fill-rule:nonzero;stroke:none"
           id="path8769" /></g><g
         id="g8771"
         transform="matrix(1.0756193,0,0,1.0756193,-21.765931,-4.2870654)"><g
           id="g8773"
           clip-path="url(#clipPath8777)"><g
             id="g8779"
             transform="translate(116.0961,59.6279)"><path
               d="m 0,0 h 4.626 c 0.502,0 1.47,0.143 2.907,0.43 0.725,0.128 1.319,0.458 1.78,0.987 0.46,0.53 0.691,1.139 0.691,1.827 C 10.004,4.26 9.64,5.04 8.915,5.585 8.187,6.128 6.823,6.401 4.82,6.401 H 0 Z m -11.081,-18.772 v 31.52 H 7.274 c 3.404,0 6.007,-0.258 7.806,-0.774 1.798,-0.517 3.249,-1.472 4.351,-2.869 1.102,-1.397 1.654,-3.097 1.654,-5.102 0,-1.748 -0.422,-3.256 -1.265,-4.523 -0.842,-1.267 -2,-2.296 -3.475,-3.083 -0.94,-0.502 -2.228,-0.916 -3.863,-1.246 1.313,-0.387 2.27,-0.774 2.869,-1.161 0.406,-0.259 0.994,-0.81 1.765,-1.656 0.769,-0.845 1.284,-1.497 1.544,-1.956 l 5.329,-9.15 H 11.524 L 5.645,-9.133 C 4.903,-7.885 4.239,-7.075 3.659,-6.702 2.867,-6.215 1.97,-5.971 0.968,-5.971 H 0 v -12.801 z"
               style="fill:#ffffff;fill-opacity:1;fill-rule:nonzero;stroke:none"
               id="path8781" /></g><path
             d="m 242.066,72.376 h 10.703 v -31.52 h -10.703 z"
             style="fill:#ffffff;fill-opacity:1;fill-rule:nonzero;stroke:none"
             id="path8783" /><g
             id="g8785"
             transform="translate(170.1132,72.5264)"><path
               d="M 0,0 H 35.446 V -7.8 H 23.559 V -31.52 H 11.888 V -7.8 H 0 Z"
               style="fill:#ffffff;fill-opacity:1;fill-rule:nonzero;stroke:none"
               id="path8787" /></g><g
             id="g8789"
             transform="translate(338.9264,41.4012)"><path
               d="m 0,0 h -33.509 v 7.8 h 11.242 v 23.72 h 11.026 V 7.8 H 0 Z"
               style="fill:#ffffff;fill-opacity:1;fill-rule:nonzero;stroke:none"
               id="path8791" /></g><g
             id="g8793"
             transform="translate(393.3721,72.5223)"><path
               d="m 0,0 h 11.673 v -18.779 c 0,-1.862 -0.348,-3.62 -1.044,-5.275 -0.696,-1.655 -1.786,-3.101 -3.272,-4.339 -1.485,-1.239 -3.044,-2.111 -4.675,-2.612 -2.268,-0.701 -4.991,-1.053 -8.168,-1.053 -1.838,0 -3.843,0.109 -6.016,0.323 -2.173,0.216 -3.99,0.641 -5.449,1.277 -1.462,0.638 -2.797,1.543 -4.007,2.719 -1.211,1.175 -2.04,2.384 -2.486,3.631 -0.721,2.006 -1.082,3.783 -1.082,5.329 V 0 h 11.671 v -19.214 c 0,-1.717 0.569,-3.06 1.706,-4.025 1.139,-0.967 2.716,-1.449 4.735,-1.449 2.001,0 3.571,0.477 4.708,1.427 C -0.568,-22.31 0,-20.96 0,-19.214 Z"
               style="fill:#ffffff;fill-opacity:1;fill-rule:nonzero;stroke:none"
               id="path8795" /></g><g
             id="g8797"
             transform="translate(457.1023,65.5246)"><path
               d="m 0,0 v -17.213 h 2.775 c 2.367,0 4.051,0.226 5.051,0.677 0.999,0.452 1.784,1.24 2.35,2.365 0.566,1.124 0.85,2.947 0.85,5.468 0,3.337 -0.634,5.623 -1.9,6.855 C 7.859,-0.616 5.759,0 2.825,0 Z M -11.35,7.153 H 5.502 c 3.32,0 6.005,-0.386 8.051,-1.16 2.045,-0.776 3.734,-1.886 5.069,-3.333 1.336,-1.448 2.305,-3.133 2.905,-5.054 0.602,-1.921 0.903,-3.955 0.903,-6.103 0,-3.37 -0.447,-5.982 -1.34,-7.839 -0.894,-1.857 -2.133,-3.413 -3.719,-4.665 -1.587,-1.255 -3.289,-2.09 -5.108,-2.506 -2.487,-0.572 -4.742,-0.86 -6.761,-0.86 H -11.35 Z"
               style="fill:#ffffff;fill-opacity:1;fill-rule:nonzero;stroke:none"
               id="path8799" /></g><g
             id="g8801"
             transform="translate(515.7704,72.6752)"><path
               d="M 0,0 H 28.669 V -6.723 H 10.704 v -5.057 h 16.675 v -6.4 H 10.704 v -6.184 h 18.502 v -7.155 H 0 Z"
               style="fill:#ffffff;fill-opacity:1;fill-rule:nonzero;stroke:none"
               id="path8803" /></g></g></g></g></g></svg>
