<svg xmlns="http://www.w3.org/2000/svg" data-name="Laag 1" viewBox="0 0 430.66667 85.874929" width="323pt" height="85.875">
  <path class="e5c396cc-d815-422f-949b-acec6e11cc86" d="M43.067 53.23h-10.25l-1.637 5.427h-9.044l12.317-32.903h7.925l12.058 32.903h-8.613zm-2.154-6.804l-3.187-10.422-3.187 10.422z" id="path8798" stroke-width="8.613" fill="#fff"/>
  <path class="e5c396cc-d815-422f-949b-acec6e11cc86" id="path8800" stroke-width="8.613" d="M100.69 58.312h-8.613l-5.944-10.766h-3.962v11.11h-8.613V25.755h13.437a17.657 17.657 0 0 1 6.718 1.206 9.475 9.475 0 0 1 4.307 3.359 9.216 9.216 0 0 1 1.55 5.426 10.853 10.853 0 0 1-1.378 5.944 10.164 10.164 0 0 1-4.22 3.531zM82.17 41.086h4.824a4.22 4.22 0 0 0 3.1-1.034 3.876 3.876 0 0 0 1.12-3.015 4.134 4.134 0 0 0-1.12-3.014 4.22 4.22 0 0 0-3.1-1.034H82.17z" fill="#fff"/>
  <path class="e5c396cc-d815-422f-949b-acec6e11cc86" d="M147.633 32.645h-9.82v25.84H129.2v-25.84h-9.475v-6.891h27.735z" id="path8802" stroke-width="8.613" fill="#fff"/>
  <path class="e5c396cc-d815-422f-949b-acec6e11cc86" d="M168.907 58.657V25.754h8.614v32.903z" id="path8804" stroke-width="8.613" fill="#fff"/>
  <path class="bea9def6-64a3-45da-a936-ec5367522225" d="M307.754 47.029a12.92 12.92 0 0 1-1.636 6.546 10.422 10.422 0 0 1-4.48 4.134 18.174 18.174 0 0 1-13.867 0 10.164 10.164 0 0 1-4.565-4.134 12.145 12.145 0 0 1-1.636-6.546V25.754h8.613v21.275a5.857 5.857 0 0 0 1.12 4.048 4.996 4.996 0 0 0 3.531 1.206 4.823 4.823 0 0 0 3.532-1.206 6.288 6.288 0 0 0 1.12-4.048V25.754h8.613z" id="path8806" fill="#fff" stroke-width="8.613"/>
  <path class="bea9def6-64a3-45da-a936-ec5367522225" d="M348.668 27.821a14.384 14.384 0 0 1 5.426 5.685 17.227 17.227 0 0 1 1.981 8.096v1.292a17.227 17.227 0 0 1-1.98 8.097 13.61 13.61 0 0 1-5.427 5.599 14.47 14.47 0 0 1-7.752 2.067h-10.94V25.754h10.767a15.332 15.332 0 0 1 7.925 2.067zm-1.206 13.781a11.025 11.025 0 0 0-1.723-6.718 5.77 5.77 0 0 0-4.996-2.24h-2.325v19.208h2.498a5.685 5.685 0 0 0 4.823-2.24 11.37 11.37 0 0 0 1.723-6.718z" id="path8808" fill="#fff" stroke-width="8.613"/>
  <path class="bea9def6-64a3-45da-a936-ec5367522225" d="M385.791 32.645v5.943h12.231v6.46h-12.23v6.804h14.47v6.805H377.35V25.754h22.998v6.89z" id="path8810" fill="#fff" stroke-width="8.613"/>
  <path class="bea9def6-64a3-45da-a936-ec5367522225" d="M232.56 50.216h9.733v-25.84h8.613v25.84h9.561v7.063H232.56z" id="path8812" fill="#fff" stroke-width="8.613"/>
</svg>
