<?xml version="1.0" encoding="UTF-8" standalone="no"?>
<svg
   xmlns:dc="http://purl.org/dc/elements/1.1/"
   xmlns:cc="http://creativecommons.org/ns#"
   xmlns:rdf="http://www.w3.org/1999/02/22-rdf-syntax-ns#"
   xmlns:svg="http://www.w3.org/2000/svg"
   xmlns="http://www.w3.org/2000/svg"
   xmlns:sodipodi="http://sodipodi.sourceforge.net/DTD/sodipodi-0.dtd"
   xmlns:inkscape="http://www.inkscape.org/namespaces/inkscape"
   id="e485d429-1937-44a9-99da-83dcacf33927"
   data-name="Laag 1"
   viewBox="0 0 430.66667 85.874929"
   version="1.1"
   sodipodi:docname="brand.svg"
   width="323pt"
   height="64.406197pt"
   inkscape:version="0.92.2 (5c3e80d, 2017-08-06)">
  <metadata
     id="metadata8817">
    <rdf:RDF>
      <cc:Work
         rdf:about="">
        <dc:format>image/svg+xml</dc:format>
        <dc:type
           rdf:resource="http://purl.org/dc/dcmitype/StillImage" />
        <dc:title>Iconen Artitude</dc:title>
      </cc:Work>
    </rdf:RDF>
  </metadata>
  <sodipodi:namedview
     pagecolor="#ffffff"
     bordercolor="#666666"
     borderopacity="1"
     objecttolerance="10"
     gridtolerance="10"
     guidetolerance="10"
     inkscape:pageopacity="0"
     inkscape:pageshadow="2"
     inkscape:window-width="640"
     inkscape:window-height="480"
     id="namedview8815"
     showgrid="false"
     inkscape:snap-page="true"
     units="pt"
     inkscape:pagecheckerboard="true"
     showguides="true"
     inkscape:guide-bbox="true"
     fit-margin-top="0"
     fit-margin-left="0"
     fit-margin-right="0"
     fit-margin-bottom="0"
     inkscape:zoom="0.75041707"
     inkscape:cx="352.77959"
     inkscape:cy="-0.72218471"
     inkscape:current-layer="e485d429-1937-44a9-99da-83dcacf33927" />
  <defs
     id="defs8790">
    <style
       id="style8788">.a708591f-9e86-418e-89cb-2b12f85a423c{fill:#e52522;}.bea9def6-64a3-45da-a936-ec5367522225{fill:#fff;}.e5c396cc-d815-422f-949b-acec6e11cc86{fill:#231f20;}</style>
  </defs>
  <title
     id="title8792">Iconen Artitude</title>
  <rect
     class="a708591f-9e86-418e-89cb-2b12f85a423c"
     x="2.1316282e-014"
     y="-430.66666"
     width="85.874924"
     height="218.6925"
     transform="rotate(90)"
     id="rect8794"
     style="fill:#e52522;stroke-width:8.61333275" />
  <rect
     class="bea9def6-64a3-45da-a936-ec5367522225"
     x="2.1316282e-014"
     y="-211.97412"
     width="85.874924"
     height="211.97412"
     transform="rotate(90)"
     id="rect8796"
     style="fill:#ffffff;stroke-width:8.61333275" />
  <path
     class="e5c396cc-d815-422f-949b-acec6e11cc86"
     d="M 43.066674,53.230405 H 32.816802 l -1.636529,5.426397 H 22.136272 L 34.45334,25.753867 h 7.924261 L 54.436265,58.656802 H 45.822932 Z M 40.913335,46.425864 37.726398,36.003739 34.539472,46.425864 Z"
     id="path8798"
     inkscape:connector-curvature="0"
     style="fill:#231f20;stroke-width:8.61333275" />
  <path
     class="e5c396cc-d815-422f-949b-acec6e11cc86"
     d="m 100.68987,58.312265 v 0 h -8.613337 l -5.943206,-10.76666 h -3.96213 V 58.656802 H 73.557865 V 25.753867 h 13.436798 a 17.657331,17.657331 0 0 1 6.718408,1.205872 9.4746658,9.4746658 0 0 1 4.306667,3.359199 9.2162659,9.2162659 0 0 1 1.550397,5.426396 A 10.852798,10.852798 0 0 1 98.192,41.68853 10.163733,10.163733 0 0 1 93.971465,45.220003 Z M 82.171197,41.085599 h 4.823466 A 4.2205329,4.2205329 0 0 0 90.095467,40.052 3.8759996,3.8759996 0 0 0 91.215196,37.037336 4.1343997,4.1343997 0 0 0 90.095467,34.022664 4.2205329,4.2205329 0 0 0 86.994663,32.989065 h -4.823466 z"
     id="path8800"
     inkscape:connector-curvature="0"
     style="fill:#231f20;stroke-width:8.61333275" />
  <path
     class="e5c396cc-d815-422f-949b-acec6e11cc86"
     d="m 147.63253,32.64454 h -9.8192 V 58.484539 H 129.2 V 32.64454 h -9.47467 v -6.890673 h 27.73493 z"
     id="path8802"
     inkscape:connector-curvature="0"
     style="fill:#231f20;stroke-width:8.61333275" />
  <path
     class="e5c396cc-d815-422f-949b-acec6e11cc86"
     d="M 168.90746,58.656802 V 25.753867 h 8.61333 v 32.902935 z"
     id="path8804"
     inkscape:connector-curvature="0"
     style="fill:#231f20;stroke-width:8.61333275" />
  <path
     class="bea9def6-64a3-45da-a936-ec5367522225"
     d="m 307.75438,47.028805 a 12.919999,12.919999 0 0 1 -1.63653,6.546127 10.422132,10.422132 0 0 1 -4.47894,4.134403 18.174132,18.174132 0 0 1 -13.86746,0 10.163733,10.163733 0 0 1 -4.56506,-4.134403 12.144799,12.144799 0 0 1 -1.63653,-6.546127 V 25.753867 h 8.61332 v 21.274938 a 5.8570661,5.8570661 0 0 0 1.11974,4.048262 4.9957329,4.9957329 0 0 0 3.53146,1.205871 4.8234663,4.8234663 0 0 0 3.53147,-1.205871 6.2877327,6.2877327 0 0 0 1.11973,-4.048262 V 25.753867 h 8.61333 z"
     id="path8806"
     inkscape:connector-curvature="0"
     style="fill:#ffffff;stroke-width:8.61333275" />
  <path
     class="bea9def6-64a3-45da-a936-ec5367522225"
     d="m 348.66771,27.821073 a 14.384265,14.384265 0 0 1 5.4264,5.684791 17.226665,17.226665 0 0 1 1.98106,8.096534 v 1.292003 a 17.226665,17.226665 0 0 1 -1.98106,8.096534 13.609066,13.609066 0 0 1 -5.4264,5.598671 14.470398,14.470398 0 0 1 -7.752,2.067196 H 329.97678 V 25.753867 h 10.76667 a 15.331733,15.331733 0 0 1 7.92426,2.067206 z m -1.20586,13.781325 a 11.025066,11.025066 0 0 0 -1.72267,-6.718399 5.7709328,5.7709328 0 0 0 -4.99573,-2.239459 h -2.3256 v 19.207731 h 2.49786 a 5.6847994,5.6847994 0 0 0 4.82347,-2.239469 11.369599,11.369599 0 0 0 1.72267,-6.718401 z"
     id="path8808"
     inkscape:connector-curvature="0"
     style="fill:#ffffff;stroke-width:8.61333275" />
  <path
     class="bea9def6-64a3-45da-a936-ec5367522225"
     d="m 385.79118,32.64454 v 5.943195 h 12.23094 v 6.459996 h -12.23094 v 6.80454 h 14.4704 v 6.804531 H 377.3501 V 25.753867 h 22.9976 v 6.890673 z"
     id="path8810"
     inkscape:connector-curvature="0"
     style="fill:#ffffff;stroke-width:8.61333275" />
  <path
     class="bea9def6-64a3-45da-a936-ec5367522225"
     d="m 232.55998,50.215732 h 9.73308 v -25.84 h 8.61333 v 25.84 h 9.5608 v 7.062936 h -27.90721 z"
     id="path8812"
     inkscape:connector-curvature="0"
     style="fill:#ffffff;stroke-width:8.61333275" />
</svg>
