<svg id="a8a32de5-d454-46b9-9f51-9094c8a2ca7c" data-name="Laag 1" xmlns="http://www.w3.org/2000/svg" viewBox="0 0 50 50"><defs><style>.afc06392-1655-4a93-8a7f-9f54e6554d5d{fill:#010101;}</style></defs><title>Iconen Artitude</title><path class="afc06392-1655-4a93-8a7f-9f54e6554d5d" d="M45.3,50H4.7A4.71,4.71,0,0,1,0,45.3V4.7A4.71,4.71,0,0,1,4.7,0H45.3A4.71,4.71,0,0,1,50,4.7V45.3A4.71,4.71,0,0,1,45.3,50ZM4.7.86A3.84,3.84,0,0,0,.86,4.7V45.3A3.84,3.84,0,0,0,4.7,49.14H45.3a3.84,3.84,0,0,0,3.84-3.84V4.7A3.84,3.84,0,0,0,45.3.86Z"/><path class="afc06392-1655-4a93-8a7f-9f54e6554d5d" d="M49.57,11.54H.43A.43.43,0,0,1,0,11.11a.43.43,0,0,1,.43-.43H49.57a.43.43,0,0,1,.43.43A.43.43,0,0,1,49.57,11.54Z"/><path class="afc06392-1655-4a93-8a7f-9f54e6554d5d" d="M7.91,7.27A1.5,1.5,0,1,1,9.4,5.77,1.5,1.5,0,0,1,7.91,7.27Zm0-2.14a.64.64,0,0,0,0,1.28.64.64,0,0,0,0-1.28Z"/><path class="afc06392-1655-4a93-8a7f-9f54e6554d5d" d="M14.32,7.27a1.5,1.5,0,1,1,1.49-1.5A1.5,1.5,0,0,1,14.32,7.27Zm0-2.14a.64.64,0,1,0,0,1.28.64.64,0,1,0,0-1.28Z"/><path class="afc06392-1655-4a93-8a7f-9f54e6554d5d" d="M20.73,7.27a1.5,1.5,0,1,1,1.49-1.5A1.5,1.5,0,0,1,20.73,7.27Zm0-2.14a.64.64,0,1,0,0,1.28.64.64,0,1,0,0-1.28Z"/><path class="afc06392-1655-4a93-8a7f-9f54e6554d5d" d="M13.25,43.59H6.84a.43.43,0,0,1-.43-.43V17.52a.43.43,0,0,1,.43-.43h6.41a.44.44,0,0,1,.43.43V43.16A.43.43,0,0,1,13.25,43.59Zm-6-.86h5.55V18H7.27Z"/><path class="afc06392-1655-4a93-8a7f-9f54e6554d5d" d="M13.25,24.36H6.84a.43.43,0,0,1-.43-.43.43.43,0,0,1,.43-.43h6.41a.44.44,0,0,1,.43.43A.43.43,0,0,1,13.25,24.36Z"/><path class="afc06392-1655-4a93-8a7f-9f54e6554d5d" d="M13.25,30.77H6.84a.43.43,0,0,1-.43-.43.43.43,0,0,1,.43-.43h6.41a.44.44,0,0,1,.43.43A.43.43,0,0,1,13.25,30.77Z"/><path class="afc06392-1655-4a93-8a7f-9f54e6554d5d" d="M13.25,37.18H6.84a.43.43,0,0,1-.43-.43.43.43,0,0,1,.43-.43h6.41a.44.44,0,0,1,.43.43A.43.43,0,0,1,13.25,37.18Z"/><path class="afc06392-1655-4a93-8a7f-9f54e6554d5d" d="M43.16,43.59H30.34a.43.43,0,0,1-.43-.43V32.48a.43.43,0,0,1,.43-.43h3.21a.43.43,0,0,1,.27.1l2.42,2h6.92a.43.43,0,0,1,.43.43v8.54A.43.43,0,0,1,43.16,43.59Zm-12.39-.86h12V35H36.08a.39.39,0,0,1-.27-.1l-2.42-2H30.77Z"/><path class="afc06392-1655-4a93-8a7f-9f54e6554d5d" d="M22.65,29.85a.43.43,0,0,1-.21-.8l15.44-8.73a.43.43,0,0,1,.58.16.44.44,0,0,1-.16.59L22.87,29.8A.54.54,0,0,1,22.65,29.85Z"/><path class="afc06392-1655-4a93-8a7f-9f54e6554d5d" d="M40,22.22a2.44,2.44,0,0,1-.71-.1,2.56,2.56,0,0,1-.53-4.71,2.6,2.6,0,0,1,2-.22,2.58,2.58,0,0,1,1.75,3.18A2.52,2.52,0,0,1,41.2,21.9,2.6,2.6,0,0,1,40,22.22ZM40,18a1.71,1.71,0,0,0-1.64,1.23,1.76,1.76,0,0,0,.15,1.31,1.72,1.72,0,0,0,1,.81,1.69,1.69,0,0,0,1.3-.15,1.7,1.7,0,0,0,.82-1,1.69,1.69,0,0,0-.15-1.3h0a1.65,1.65,0,0,0-1-.81A1.59,1.59,0,0,0,40,18Z"/><path class="afc06392-1655-4a93-8a7f-9f54e6554d5d" d="M20.73,32.91a2.56,2.56,0,1,1,1.1-.25h0A2.67,2.67,0,0,1,20.73,32.91Zm.91-.64h0Zm-.92-3.64a1.77,1.77,0,0,0-.73.17,1.72,1.72,0,0,0-.81,2.28,1.7,1.7,0,0,0,1,.87,1.66,1.66,0,0,0,1.31-.06,1.71,1.71,0,0,0-.74-3.26Z"/></svg>