<svg id="a1742c40-b307-4161-8387-a020f27a4b31" data-name="Laag 1" xmlns="http://www.w3.org/2000/svg" viewBox="0 0 50 50"><defs><style>.ac98fe4f-228c-47b5-9d48-b244177c66a7{fill:#010101;}</style></defs><title>Iconen Artitude</title><path class="ac98fe4f-228c-47b5-9d48-b244177c66a7" d="M47,45.38H31a.47.47,0,0,1-.41-.23l-5.37-8.82-5.3,8.82a.47.47,0,0,1-.4.23H3.34a.48.48,0,0,1-.48-.47V24a.49.49,0,0,1,.48-.48H47a.48.48,0,0,1,.47.48v20.9A.47.47,0,0,1,47,45.38Zm-15.81-1H46.56V24.48H3.81v20H19.22l5.56-9.27a.49.49,0,0,1,.41-.23h0a.47.47,0,0,1,.4.23Z"/><path class="ac98fe4f-228c-47b5-9d48-b244177c66a7" d="M3.34,24.48a.45.45,0,0,1-.25-.07.48.48,0,0,1-.16-.65L13.58,6.23a3.26,3.26,0,0,1,2-1.51,3.32,3.32,0,0,1,2.52.37.48.48,0,0,1,.16.65.48.48,0,0,1-.65.17,2.37,2.37,0,0,0-3.26.81L3.75,24.25A.48.48,0,0,1,3.34,24.48Z"/><path class="ac98fe4f-228c-47b5-9d48-b244177c66a7" d="M47,24.48a.48.48,0,0,1-.41-.23L36,6.72a2.38,2.38,0,0,0-3.26-.81.49.49,0,0,1-.66-.17.48.48,0,0,1,.17-.65A3.33,3.33,0,0,1,36.8,6.23L47.44,23.76a.46.46,0,0,1-.16.65A.42.42,0,0,1,47,24.48Z"/><path class="ac98fe4f-228c-47b5-9d48-b244177c66a7" d="M36.66,39.94a.57.57,0,0,1-.18,0,.49.49,0,0,1-.3-.44V28.4a.49.49,0,0,1,.3-.44.46.46,0,0,1,.51.11l5.54,5.53a.48.48,0,0,1,0,.67L37,39.8A.47.47,0,0,1,36.66,39.94Zm.47-10.39v8.77l4.39-4.38Z"/><path class="ac98fe4f-228c-47b5-9d48-b244177c66a7" d="M7.52,30.7a1.81,1.81,0,0,1-.43-3.56,1.76,1.76,0,0,1,1.36.2,1.8,1.8,0,0,1,.62,2.48A1.79,1.79,0,0,1,8,30.65,2.2,2.2,0,0,1,7.52,30.7Zm0-2.67a.64.64,0,0,0-.2,0,.86.86,0,0,0-.63,1,.85.85,0,0,0,1,.62.84.84,0,0,0,.62-1h0A.81.81,0,0,0,8,28.16.84.84,0,0,0,7.52,28Z"/><path class="ac98fe4f-228c-47b5-9d48-b244177c66a7" d="M12,30.7a1.79,1.79,0,0,1-.93-.26A1.82,1.82,0,0,1,10.43,28a1.81,1.81,0,0,1,3.31.5h0a1.83,1.83,0,0,1-1.32,2.19A2.28,2.28,0,0,1,12,30.7ZM12,28a.76.76,0,0,0-.21,0,.82.82,0,0,0-.52.39.86.86,0,0,0,.29,1.18.82.82,0,0,0,.65.09.84.84,0,0,0,.62-1h0a.81.81,0,0,0-.39-.53A.84.84,0,0,0,12,28Z"/><path class="ac98fe4f-228c-47b5-9d48-b244177c66a7" d="M16.25,30.7a1.81,1.81,0,0,1-.43-3.56,1.81,1.81,0,0,1,2,2.68,1.79,1.79,0,0,1-1.11.83A2.2,2.2,0,0,1,16.25,30.7Zm0-2.67a.76.76,0,0,0-.21,0,.86.86,0,0,0-.62,1,.85.85,0,0,0,1,.62.84.84,0,0,0,.62-1h0a.81.81,0,0,0-.39-.53A.84.84,0,0,0,16.25,28Z"/><path class="ac98fe4f-228c-47b5-9d48-b244177c66a7" d="M28.13,30.67H22.25A1.27,1.27,0,0,1,21,29.4V28a1.27,1.27,0,0,1,1.27-1.27h5.88A1.27,1.27,0,0,1,29.4,28V29.4A1.27,1.27,0,0,1,28.13,30.67Zm-5.88-3a.33.33,0,0,0-.32.32V29.4a.32.32,0,0,0,.32.31h5.88a.32.32,0,0,0,.32-.31V28a.33.33,0,0,0-.32-.32Z"/><path class="ac98fe4f-228c-47b5-9d48-b244177c66a7" d="M3.14,33.17C1.39,33.17,0,32.11,0,30.79V27.14c0-1.32,1.42-2.38,3.17-2.38v.8c-1.28,0-2.37.72-2.37,1.58v3.65c0,.86,1.09,1.58,2.37,1.58Z"/><path class="ac98fe4f-228c-47b5-9d48-b244177c66a7" d="M46.86,33.17v-.8c1.28,0,2.37-.72,2.37-1.58V27.14c0-.86-1.09-1.58-2.37-1.58v-.8c1.75,0,3.17,1.06,3.17,2.38v3.65C50,32.11,48.61,33.17,46.86,33.17Z"/><path class="ac98fe4f-228c-47b5-9d48-b244177c66a7" d="M32.53,24h-1c0-1.26-1.34-2.29-3-2.29h-6.4c-1.65,0-3,1-3,2.29h-.95c0-1.79,1.76-3.24,3.94-3.24h6.4C30.76,20.77,32.53,22.22,32.53,24Z"/></svg>