<svg id="e6116847-158a-48ab-9c57-46387b54484e" data-name="Laag 1" xmlns="http://www.w3.org/2000/svg" viewBox="0 0 50 50"><title>Iconen Artitude</title><path d="M35.92,10.92a1.92,1.92,0,0,0-.54.69,2.41,2.41,0,0,0-.16.9,2.31,2.31,0,0,0,.16.86,2.62,2.62,0,0,0,.54.74,2.1,2.1,0,0,0,.77.48,2.37,2.37,0,0,0,.82.16,2.13,2.13,0,0,0,.86-.16,3.31,3.31,0,0,0,.74-.48,2.72,2.72,0,0,0,.48-.82,2.35,2.35,0,0,0,.16-.78,2.23,2.23,0,0,0-.16-.9,2.26,2.26,0,0,0-.48-.69,2.17,2.17,0,0,0-3.19,0ZM30.7,28.86a9.2,9.2,0,0,1-2,1.78,5.77,5.77,0,0,1-2.55.94,7.09,7.09,0,0,1-5-1.31,6.15,6.15,0,0,1-2.69-4.39,6.24,6.24,0,0,1,1.25-5,6.45,6.45,0,0,1,4.44-2.69h1.82a6.85,6.85,0,0,1,3.78,1.91,6.78,6.78,0,0,1,1.91,3.79,5.92,5.92,0,0,1,0,2.68A7.52,7.52,0,0,1,30.7,28.86ZM26.81,13.63a9.16,9.16,0,0,0-3.41,0,10.26,10.26,0,0,0-4.2,1.55,11.56,11.56,0,0,0-3.2,3,11.82,11.82,0,0,0-1.86,3.94,11.18,11.18,0,0,0-.27,4.47,11,11,0,0,0,1.49,4.18,11.35,11.35,0,0,0,3,3.33,16.84,16.84,0,0,0,3.25,1.65,9.93,9.93,0,0,0,3.56.64l.83,0a1.56,1.56,0,0,0,.77-.24A11,11,0,0,0,31,34.61a11.45,11.45,0,0,0,3.33-3,10.86,10.86,0,0,0,2-8.42,10.74,10.74,0,0,0-3.11-6.36A11,11,0,0,0,26.81,13.63ZM45.45,36.37a9.1,9.1,0,0,1-9.11,9.05H13.66a8.78,8.78,0,0,1-6.44-2.66,8.72,8.72,0,0,1-2.67-6.39V13.63A8.78,8.78,0,0,1,7.22,7.22a8.69,8.69,0,0,1,6.44-2.69H36.34a8.69,8.69,0,0,1,6.44,2.69,8.78,8.78,0,0,1,2.67,6.41ZM36.34,0H13.66A13.49,13.49,0,0,0,8.33,1.06a13.75,13.75,0,0,0-7.24,7.3A13.06,13.06,0,0,0,0,13.63V36.37A13.51,13.51,0,0,0,4,46a14.16,14.16,0,0,0,4.31,2.9A12.87,12.87,0,0,0,13.66,50H36.34a12.87,12.87,0,0,0,5.33-1.12A14.16,14.16,0,0,0,46,46a13.51,13.51,0,0,0,4-9.61V13.63a13.06,13.06,0,0,0-1.06-5.27,13.75,13.75,0,0,0-7.24-7.3A13.49,13.49,0,0,0,36.34,0Z"/></svg>