<svg xmlns="http://www.w3.org/2000/svg" viewBox="0 0 50 50"><path fill="#fff" d="M21.08,0h1.85V11.09H21.08Zm7.5,2.72h1.85v8.37H28.58Zm-14.89,0h1.85v8.37H13.69ZM4.45,48.15H39.67V50H4.45ZM22.06,46.3a15.15,15.15,0,0,0,6.14-1.25,15.58,15.58,0,0,0,4.94-3.31,16.23,16.23,0,0,0,3.43-5.06,15.29,15.29,0,0,0,1.25-6.14V18.48H6.3V30.54a15.12,15.12,0,0,0,1.25,6.14,17,17,0,0,0,3.31,5.06,17.12,17.12,0,0,0,5.06,3.31A15.12,15.12,0,0,0,22.06,46.3ZM39.67,29.67h5.54V18.48H39.67Zm0,1.85A17.42,17.42,0,0,1,38,38a19.39,19.39,0,0,1-3.75,5.33,18.85,18.85,0,0,1-5.54,3.48,17.15,17.15,0,0,1-6.63,1.3A17.46,17.46,0,0,1,4.45,30.54V16.63H47.06V31.52Z"/></svg>
