<svg xmlns="http://www.w3.org/2000/svg" viewBox="0 0 50 50">
  <rect x="24.57" y="4.7" width="0.86" height="8.55"/>
  <path d="M33.55,41.45H16.45A.42.42,0,0,1,16,41V17.52a.43.43,0,0,1,.42-.43h17.1a.43.43,0,0,1,.42.43V41A.42.42,0,0,1,33.55,41.45ZM16.88,40.6H33.12V18H16.88Z"/>
  <path d="M29.27,18H20.73a.43.43,0,0,1-.43-.43V13.25a.43.43,0,0,1,.43-.43h8.54a.43.43,0,0,1,.43.43v4.27A.43.43,0,0,1,29.27,18Zm-8.12-.86h7.7V13.68h-7.7Z"/>
  <path d="M31.41,5.13H18.59a4.71,4.71,0,0,1-4.7-4.7A.43.43,0,0,1,14.32,0H35.68a.43.43,0,0,1,.43.43A4.71,4.71,0,0,1,31.41,5.13ZM14.77.86a3.84,3.84,0,0,0,3.82,3.41H31.41A3.84,3.84,0,0,0,35.23.86Z"/>
  <path d="M25,50a.43.43,0,0,1-.43-.43V47.44a.43.43,0,0,1,.86,0v2.13A.43.43,0,0,1,25,50Z"/>
  <path d="M32.55,46.87a.42.42,0,0,1-.3-.12l-1.51-1.51a.43.43,0,0,1,.61-.61l1.51,1.51a.45.45,0,0,1,0,.61A.47.47,0,0,1,32.55,46.87Z"/>
  <path d="M17.45,46.87a.47.47,0,0,1-.31-.12.45.45,0,0,1,0-.61l1.51-1.51a.43.43,0,0,1,.61.61l-1.51,1.51A.42.42,0,0,1,17.45,46.87Z"/>
</svg>
