<svg id="b305afee-439a-46a1-85de-549573b4532d" data-name="Laag 1" xmlns="http://www.w3.org/2000/svg" viewBox="0 0 50 50"><title>Iconen Artitude</title><path d="M18.66,24.26a8.61,8.61,0,0,0,12.31,0,8.39,8.39,0,0,0,2.59-6.16A8.37,8.37,0,0,0,31,12a8.61,8.61,0,0,0-12.31,0,8.37,8.37,0,0,0-2.59,6.15A8.39,8.39,0,0,0,18.66,24.26Zm-6.28-19A16.9,16.9,0,0,1,24.94,0,17.2,17.2,0,0,1,37.56,5.23,17.22,17.22,0,0,1,42.8,17.86a17.49,17.49,0,0,1-3.7,10.71L28,47.91a1.31,1.31,0,0,0-.25.37,1.4,1.4,0,0,1-.25.37l-.12.24v-.12a3.12,3.12,0,0,1-5-.12c-.08,0-.12,0-.12-.13a.35.35,0,0,0-.12-.24L10.78,28.45A17.29,17.29,0,0,1,7.2,17.86,17.08,17.08,0,0,1,12.38,5.3Z"/></svg>