<?xml version="1.0" encoding="UTF-8" standalone="no"?>
<svg
   xmlns:dc="http://purl.org/dc/elements/1.1/"
   xmlns:cc="http://creativecommons.org/ns#"
   xmlns:rdf="http://www.w3.org/1999/02/22-rdf-syntax-ns#"
   xmlns:svg="http://www.w3.org/2000/svg"
   xmlns="http://www.w3.org/2000/svg"
   xmlns:sodipodi="http://sodipodi.sourceforge.net/DTD/sodipodi-0.dtd"
   xmlns:inkscape="http://www.inkscape.org/namespaces/inkscape"
   id="abf6c4a9-5d51-48f6-bc70-6a1c45df1ce2"
   data-name="Laag 1"
   viewBox="0 0 50 16.655689"
   version="1.1"
   sodipodi:docname="menu.svg"
   width="50"
   height="16.655689"
   inkscape:version="0.92.2 (5c3e80d, 2017-08-06)">
  <metadata
     id="metadata8863">
    <rdf:RDF>
      <cc:Work
         rdf:about="">
        <dc:format>image/svg+xml</dc:format>
        <dc:type
           rdf:resource="http://purl.org/dc/dcmitype/StillImage" />
        <dc:title>Iconen Artitude</dc:title>
      </cc:Work>
    </rdf:RDF>
  </metadata>
  <sodipodi:namedview
     pagecolor="#ffffff"
     bordercolor="#666666"
     borderopacity="1"
     objecttolerance="10"
     gridtolerance="10"
     guidetolerance="10"
     inkscape:pageopacity="0"
     inkscape:pageshadow="2"
     inkscape:window-width="640"
     inkscape:window-height="480"
     id="namedview8861"
     showgrid="false"
     fit-margin-top="0"
     fit-margin-left="0"
     fit-margin-right="0"
     fit-margin-bottom="0"
     inkscape:zoom="8.75"
     inkscape:cx="55.958285"
     inkscape:cy="-6.0846431"
     inkscape:current-layer="abf6c4a9-5d51-48f6-bc70-6a1c45df1ce2" />
  <path
     fill="#ffffff"
     d="M 0,16.37 V 0 h 2.43 l 2.41,9.38 c 0.2,0.76 0.33,1.32 0.38,1.66 A 11.12,11.12 0 0 1 5.59,9.38 L 8.05,0 h 2.33 V 16.37 H 8.26 V 6.78 c 0,-0.67 0,-1.13 0,-1.4 q 0,0.14 -0.18,0.63 C 7.98,6.34 7.91,6.6 7.86,6.78 L 5.33,16.37 H 5.05 L 2.48,6.78 2.08,5.38 c 0,0.53 0,1 0,1.4 v 9.59 z"
     id="path8852"
     inkscape:connector-curvature="0" />
  <path
    fill="#ffffff"
     d="M 13.47,16.37 V 0 h 10 V 2.25 H 15.88 V 6.76 H 21 v 2.29 h -5.12 v 5 H 24 v 2.29 z"
     id="path8854"
     inkscape:connector-curvature="0" />
  <path
    fill="#ffffff"
     d="M 36.51,16.37 V 0 h -2.32 l -5.35,10.78 a 11,11 0 0 0 -0.49,1 c 0,-0.59 0,-0.93 0,-1 V 0 h -2.23 v 16.37 h 2.23 L 33.77,5.64 33.93,5.33 34.12,4.94 34.29,4.61 a 8.56,8.56 0 0 0 0,1 v 10.76 z"
     id="path8856"
     inkscape:connector-curvature="0" />
  <path
    fill="#ffffff"
     d="M 44.6,16.65 A 5.17,5.17 0 0 1 40.67,15.1 c -1,-1 -1.48,-2.69 -1.48,-5 V 0 h 2.41 v 10.15 q 0,4.23 3,4.23 3,0 3,-4.23 V 0 H 50 v 10.15 c 0,2.25 -0.49,3.89 -1.46,4.94 a 5.15,5.15 0 0 1 -3.94,1.56 z"
     id="path8858"
     inkscape:connector-curvature="0" />
</svg>
