<svg xmlns="http://www.w3.org/2000/svg" viewBox="0 0 50 50">
  <rect x="44.87" y="8.97" width="0.86" height="32.05"/>
  <rect x="8.97" y="4.27" width="32.05" height="0.86"/>
  <path d="M41,45.73H4.7a.44.44,0,0,1-.43-.43V9h.86v35.9H41Z"/>
  <path d="M9,9.4H.43A.43.43,0,0,1,0,9V.43A.43.43,0,0,1,.43,0H9A.43.43,0,0,1,9.4.43V9A.43.43,0,0,1,9,9.4ZM.86,8.55H8.55V.86H.86Z"/>
  <path d="M49.57,9.4H41A.43.43,0,0,1,40.6,9V.43A.43.43,0,0,1,41,0h8.54A.43.43,0,0,1,50,.43V9A.43.43,0,0,1,49.57,9.4Zm-8.12-.85h7.69V.86H41.45Z"/>
  <path d="M49.57,50H41a.43.43,0,0,1-.43-.43V41A.43.43,0,0,1,41,40.6h8.54A.43.43,0,0,1,50,41v8.54A.43.43,0,0,1,49.57,50Zm-8.12-.86h7.69V41.45H41.45Z"/>
  <path d="M21.79,45.73H4.7a.44.44,0,0,1-.43-.43V28.21a.43.43,0,0,1,.43-.43H21.79a.43.43,0,0,1,.43.43V45.3A.43.43,0,0,1,21.79,45.73ZM5.13,44.87H21.37V28.63H5.13Z"/>
  <path d="M21.79,28.63a.46.46,0,0,1-.3-.12.45.45,0,0,1,0-.61L32.18,17.22a.42.42,0,1,1,.6.6L22.1,28.51A.47.47,0,0,1,21.79,28.63Z"/>
  <path d="M32.48,26.5a.43.43,0,0,1-.43-.43V18H23.93a.43.43,0,0,1-.43-.43.44.44,0,0,1,.43-.43h8.55a.44.44,0,0,1,.43.43v8.55A.44.44,0,0,1,32.48,26.5Z"/>
</svg>
