<svg xmlns="http://www.w3.org/2000/svg" viewBox="0 0 50 50"><path fill="#010101" fill="#010101" d="M31.53,49.44a6.79,6.79,0,0,1-3.74-1.12A91.12,91.12,0,0,1,2.3,22.83a6.81,6.81,0,0,1,.86-8.54L5.42,12a4.86,4.86,0,0,1,6.85,0l4.12,4.12a4.85,4.85,0,0,1,0,6.85h0l-.75.74A90.25,90.25,0,0,0,26.87,35l.74-.75a4.85,4.85,0,0,1,6.86,0l4.11,4.12a4.84,4.84,0,0,1,0,6.85l-2.25,2.26A6.82,6.82,0,0,1,31.53,49.44ZM8.84,12.56a2.88,2.88,0,0,0-2,.85L4.53,15.66a4.87,4.87,0,0,0-.61,6.1A89.07,89.07,0,0,0,28.86,46.7,4.86,4.86,0,0,0,35,46.09l2.26-2.26a2.91,2.91,0,0,0,0-4.11L33.1,35.6a3,3,0,0,0-4.12,0L27.61,37a1,1,0,0,1-1.3.07A93.38,93.38,0,0,1,13.58,24.31a1,1,0,0,1,.07-1.3L15,21.63a2.92,2.92,0,0,0,0-4.11L10.9,13.41A2.89,2.89,0,0,0,8.84,12.56Zm6.86,9.76h0Z"/><path fill="#010101" d="M46.75,27.15a1,1,0,0,1-1-1A21.36,21.36,0,0,0,24.44,4.84a1,1,0,1,1,0-1.94A23.29,23.29,0,0,1,47.71,26.18,1,1,0,0,1,46.75,27.15Z"/><path fill="#010101" d="M39,27.15a1,1,0,0,1-1-1A13.59,13.59,0,0,0,24.44,12.6a1,1,0,1,1,0-1.94A15.53,15.53,0,0,1,40,26.18,1,1,0,0,1,39,27.15Z"/><path fill="#010101" d="M31.23,27.15a1,1,0,0,1-1-1,5.83,5.83,0,0,0-5.82-5.82,1,1,0,0,1,0-1.94,7.77,7.77,0,0,1,7.76,7.76A1,1,0,0,1,31.23,27.15Z"/></svg>
