<svg id="a938c9a4-d5c2-443f-b7b0-366d1b6e218d" data-name="Laag 1" xmlns="http://www.w3.org/2000/svg" viewBox="0 0 50 50"><title>Iconen Artitude</title><path d="M44.9,14.81v1.33A29.53,29.53,0,0,1,43,26.43a29.49,29.49,0,0,1-5.6,9.4,28.88,28.88,0,0,1-9.13,6.85,28.39,28.39,0,0,1-12.55,2.65,28.36,28.36,0,0,1-8.33-1.22A29.89,29.89,0,0,1,0,40.71l1.19.11c.41,0,.83,0,1.25,0A20,20,0,0,0,9.29,39.7a21,21,0,0,0,5.89-3.24,10.15,10.15,0,0,1-9.55-7.11,5.05,5.05,0,0,0,.93.14l1,0a10.64,10.64,0,0,0,1.38-.08,9.08,9.08,0,0,0,1.32-.24,10.24,10.24,0,0,1-5.86-3.55A9.83,9.83,0,0,1,2,19.11V19a11.1,11.1,0,0,0,2.2.88,10.56,10.56,0,0,0,2.41.4,10.27,10.27,0,0,1-3.31-3.64,10,10,0,0,1-1.25-4.91A9.73,9.73,0,0,1,2.44,9,9.56,9.56,0,0,1,3.5,6.58,26.32,26.32,0,0,0,7.72,10.8a31.71,31.71,0,0,0,5.05,3.29,28.22,28.22,0,0,0,5.67,2.23,28.35,28.35,0,0,0,6.19,1,5.9,5.9,0,0,1-.21-1.16A11.46,11.46,0,0,1,24.36,15a10.22,10.22,0,0,1,.8-4,9.83,9.83,0,0,1,2.2-3.26,11,11,0,0,1,3.27-2.21,10.17,10.17,0,0,1,8.14.06,10.08,10.08,0,0,1,3.32,2.36,18.07,18.07,0,0,0,3.4-1,23,23,0,0,0,3.13-1.48,10.36,10.36,0,0,1-1.75,3.21,10.25,10.25,0,0,1-2.76,2.41,19.33,19.33,0,0,0,3-.55A17.86,17.86,0,0,0,50,9.5a19.26,19.26,0,0,1-2.31,2.89A19.29,19.29,0,0,1,44.9,14.81Z"/></svg>